<svg width="420" height="284" viewBox="0 0 420 284" fill="none" xmlns="http://www.w3.org/2000/svg">
<path d="M228.193 420C194.704 420 164.156 415.018 136.547 405.053C108.939 395.252 85.1704 381.12 65.2404 362.66C45.3104 344.201 29.9545 321.984 19.1727 296.009C8.39091 270.036 3 240.875 3 208.53V208.285C3 177.247 8.14586 148.985 18.4376 123.501C28.8927 98.0168 43.5952 76.0444 62.545 57.5847C81.4949 39.1249 104.039 24.9125 130.176 14.9475C156.478 4.9825 185.392 0 216.921 0C257.761 0 293.21 7.84131 323.268 23.5239C353.327 39.2066 376.606 61.3419 393.105 89.9301C409.605 118.355 417.854 151.681 417.854 189.907V190.152C417.854 215.309 414.097 237.281 406.583 256.068C399.232 274.855 388.858 289.393 375.462 299.685C362.067 309.977 346.302 315.123 328.169 315.123C313.303 315.123 300.071 312.019 288.473 305.812C276.874 299.603 267.971 290.945 261.763 279.837L258.088 273.22H256.128C249.266 287.597 240.036 298.541 228.437 306.056C217.003 313.571 203.688 317.328 188.496 317.328C172.16 317.328 157.702 312.918 145.124 304.096C132.545 295.111 122.662 282.533 115.474 266.36C108.449 250.023 104.937 230.91 104.937 209.02V208.775C104.937 188.681 108.612 170.875 115.964 155.356C123.315 139.836 133.281 127.666 145.859 118.845C158.438 110.023 172.568 105.613 188.251 105.613C202.3 105.613 214.552 108.962 225.007 115.659C235.626 122.357 243.467 131.669 248.532 143.594H250.492V111.738H312.732V221.518C312.732 234.096 314.611 243.898 318.367 250.922C322.125 257.783 327.435 261.214 334.295 261.214C340.013 261.214 344.996 258.436 349.243 252.882C353.491 247.328 356.757 239.487 359.044 229.358C361.332 219.23 362.475 207.386 362.475 193.827V193.582C362.475 163.524 356.594 137.549 344.832 115.659C333.233 93.7694 316.571 76.8612 294.844 64.9359C273.117 53.0106 247.142 47.0479 216.921 47.0479C193.233 47.0479 171.67 50.8868 152.23 58.5648C132.79 66.2428 116.045 77.1879 101.997 91.4003C88.1109 105.613 77.3291 122.684 69.6512 142.614C62.1366 162.381 58.3793 184.434 58.3793 208.775V209.02C58.3793 243.489 65.4855 272.894 79.6979 297.235C94.0735 321.412 114.412 339.872 140.713 352.614C167.177 365.356 198.624 371.727 235.054 371.727C244.529 371.727 253.922 371.237 263.234 370.257C272.545 369.277 281.775 367.806 290.923 365.846C300.071 363.886 309.056 361.436 317.878 358.495V406.033C303.502 410.771 288.963 414.282 274.261 416.569C259.558 418.856 244.202 420 228.193 420ZM209.57 261.949C219.371 261.949 227.213 257.457 233.094 248.472C238.974 239.487 241.915 227.071 241.915 211.226V210.245C241.915 194.889 238.892 182.883 232.849 174.224C226.967 165.402 219.208 160.992 209.57 160.992C203.035 160.992 197.318 162.952 192.417 166.873C187.515 170.793 183.677 176.511 180.9 184.026C178.286 191.377 176.98 200.362 176.98 210.981V211.226C176.98 221.843 178.286 230.992 180.9 238.67C183.677 246.185 187.515 251.984 192.417 256.068C197.318 259.989 203.035 261.949 209.57 261.949Z" fill="url(#paint0_linear_1_441)" fill-opacity="0.05"/>
<path d="M216.921 0.5C257.697 0.5 293.063 8.32841 323.037 23.9668C353.013 39.6067 376.221 61.6763 392.672 90.1797L392.673 90.1807C409.121 118.518 417.354 151.755 417.354 189.907V190.151C417.354 215.26 413.604 237.168 406.118 255.883L406.117 255.886C398.793 274.604 388.468 289.061 375.157 299.288C361.856 309.508 346.201 314.623 328.17 314.623C313.375 314.623 300.226 311.535 288.709 305.371C277.192 299.206 268.359 290.615 262.199 279.593L258.525 272.978L258.382 272.721H255.812L255.677 273.005C248.849 287.311 239.676 298.179 228.166 305.637L228.163 305.639C216.819 313.093 203.602 316.828 188.496 316.828C172.764 316.828 158.798 312.715 146.587 304.495L145.411 303.687C133.307 295.039 123.704 283.037 116.609 267.656L115.931 266.157C108.94 249.897 105.437 230.855 105.437 209.021V208.774C105.437 188.743 109.101 171.012 116.416 155.57C123.734 140.119 133.646 128.02 146.146 119.254C158.639 110.493 172.669 106.113 188.251 106.113C202.217 106.113 214.373 109.441 224.737 116.08L224.74 116.082C235.27 122.724 243.045 131.955 248.071 143.789L248.201 144.094H250.992V112.238H312.231V221.518C312.231 234.135 314.115 244.031 317.927 251.158L317.929 251.162C321.759 258.156 327.223 261.714 334.295 261.714C340.203 261.714 345.322 258.833 349.641 253.187C353.948 247.555 357.236 239.636 359.532 229.469C361.83 219.296 362.975 207.412 362.975 193.827V193.582C362.975 163.459 357.08 137.399 345.271 115.422C333.627 93.4477 316.896 76.4696 295.084 64.498C273.269 52.5243 247.208 46.5479 216.921 46.5479C193.179 46.5479 171.552 50.3957 152.047 58.0996C132.545 65.8019 115.741 76.7849 101.642 91.0488L101.64 91.0508C87.7028 105.315 76.885 122.446 69.1846 142.435L69.1836 142.437C61.6445 162.267 57.8789 184.382 57.8789 208.774V209.021C57.8789 243.558 64.9997 273.055 79.2656 297.487L79.2686 297.49C93.6963 321.755 114.11 340.282 140.495 353.064H140.496C167.043 365.846 198.567 372.227 235.054 372.227C244.546 372.227 253.957 371.736 263.286 370.755C272.615 369.772 281.862 368.299 291.027 366.335C299.967 364.42 308.75 362.036 317.378 359.186V405.669C303.14 410.341 288.742 413.811 274.184 416.075C259.509 418.358 244.178 419.5 228.192 419.5C194.753 419.5 164.263 414.526 136.717 404.583V404.582H136.715C109.166 394.802 85.4565 380.704 65.5801 362.294C45.7048 343.885 30.39 321.728 19.6348 295.817C8.88176 269.913 3.5 240.819 3.5 208.529V208.285C3.5 177.303 8.6356 149.105 18.9004 123.688C29.3306 98.2652 43.9955 76.3517 62.8936 57.9424C81.7916 39.5331 104.277 25.357 130.354 15.415L130.353 15.4141C156.591 5.4729 185.445 0.500003 216.921 0.5ZM209.569 160.492C202.927 160.492 197.098 162.488 192.104 166.482C187.115 170.473 183.231 176.276 180.431 183.853L180.429 183.858C177.79 191.279 176.48 200.324 176.479 210.98V211.226C176.479 221.549 177.71 230.511 180.184 238.101L180.427 238.831L180.431 238.843C183.143 246.183 186.872 251.93 191.633 256.058L192.097 256.452L192.104 256.458C197.098 260.452 202.927 262.449 209.569 262.449C219.557 262.449 227.549 257.856 233.512 248.746C239.465 239.649 242.415 227.125 242.415 211.226V210.245C242.415 195.313 239.568 183.472 233.823 174.771L233.259 173.938C227.296 164.999 219.39 160.492 209.569 160.492Z" stroke="url(#paint1_linear_1_441)" stroke-opacity="0.05"/>
<defs>
<linearGradient id="paint0_linear_1_441" x1="48.5" y1="15" x2="342" y2="323.5" gradientUnits="userSpaceOnUse">
<stop stop-color="#1C1C1C"/>
<stop offset="1" stop-color="#1C1C1C" stop-opacity="0.5"/>
</linearGradient>
<linearGradient id="paint1_linear_1_441" x1="97.5" y1="-1.4501" x2="320.5" y2="365.5" gradientUnits="userSpaceOnUse">
<stop stop-color="#1C1C1C"/>
<stop offset="0.572115" stop-color="#707070"/>
</linearGradient>
</defs>
</svg>
