<svg width="20" height="20" viewBox="0 0 20 20" fill="none" xmlns="http://www.w3.org/2000/svg">
<path d="M15 16.6667C15 15.3407 14.4732 14.0689 13.5356 13.1312C12.5979 12.1935 11.3261 11.6667 10 11.6667M10 11.6667C8.67394 11.6667 7.40217 12.1935 6.46449 13.1312C5.5268 14.0689 5.00002 15.3407 5.00002 16.6667M10 11.6667C11.841 11.6667 13.3334 10.1744 13.3334 8.33341C13.3334 6.49247 11.841 5.00008 10 5.00008C8.15907 5.00008 6.66669 6.49247 6.66669 8.33341C6.66669 10.1744 8.15907 11.6667 10 11.6667ZM18.3334 10.0001C18.3334 14.6025 14.6024 18.3334 10 18.3334C5.39765 18.3334 1.66669 14.6025 1.66669 10.0001C1.66669 5.39771 5.39765 1.66675 10 1.66675C14.6024 1.66675 18.3334 5.39771 18.3334 10.0001Z" stroke="#1C1C1C" stroke-width="1.25" stroke-linecap="round" stroke-linejoin="round"/>
</svg>
