<svg width="40" height="40" viewBox="0 0 40 40" fill="none" xmlns="http://www.w3.org/2000/svg">
<rect width="40" height="40" rx="20" fill="white"/>
<path d="M22.8887 18.1791L22.8724 18.1975C22.8752 18.1996 22.8805 18.2049 22.8841 18.2074L22.8887 18.1791ZM37.9251 39.9999C37.3885 33.1808 36.6216 26.701 35.4542 25.2652C33.8514 23.2906 25.1696 20.8463 25.1696 20.8463C25.1696 20.8463 22.9145 26.7399 22.7893 27.1577C22.7157 27.3682 21.4652 26.2553 21.3959 26.4683C20.5915 29.5709 18.7931 34.8533 18.2207 37.9316L18.2062 26.7696L19.4273 25.1753L17.9621 23.8538L23.0188 18.9983C23.0118 18.9934 22.8544 18.1837 22.8498 18.1815C22.7351 16.3141 23.1692 14.7234 23.3422 14.1606C24.0054 14.364 24.7384 12.0625 24.9991 11.2843C25.2587 10.5061 24.7387 9.92276 24.7387 9.92276C24.772 9.79117 24.7377 9.76889 25.1282 9.14348C25.4533 8.6256 24.935 4.86357 24.5445 3.69658C24.1558 2.5296 23.183 1.81539 21.4956 1.16734C19.8108 0.518937 17.5405 0 16.4379 0C15.336 0 14.9476 0.583318 14.6228 0.908759C14.6228 0.908759 13.8442 1.03717 13.2609 1.03717C12.6769 1.03717 11.8078 1.901 11.2414 2.71955C10.3401 4.02026 10.3404 6.87777 10.4218 7.7172C10.6192 9.75792 10.9266 10.1184 11.096 10.1492C10.9616 10.1937 10.748 10.2804 10.6107 10.4056C10.1342 10.8411 11.193 13.5256 11.3879 13.8493C11.5817 14.174 11.7692 14.203 11.7692 14.203C11.7692 14.203 12.0727 15.0516 12.223 15.5005C12.47 16.2328 13.1934 16.7057 13.1951 16.7319C13.2234 17.0237 13.8322 18.4536 14.0158 20.0012C13.9302 20.0663 13.8234 20.1536 13.7059 20.2509L13.7158 20.3231L16.6413 23.9677L15.3342 25.2174L16.1096 26.7689L14.6012 37.7582L13.2224 26.6395L12.274 27.4152L11.829 21.7264L11.4321 22.0161C9.62235 22.9577 3.73505 25.9196 3.23522 27.6667C2.9494 28.6682 2.41525 34.3001 2.07495 39.9988H37.9251V39.9999Z" fill="#1C1C1C"/>
<path d="M22.9329 18.8256C22.2866 18.3947 14.7162 19.4001 14.7162 19.4001L14.0912 19.4432L10.708 22.4168L10.7943 22.8048L11.2252 22.9339L11.4983 22.2445L13.8828 20.1472L16.1807 22.2445L19.8893 22.0149L22.9039 19.2278L25.0875 21.0092L25.2092 21.7273L26.1788 21.4687C26.1795 21.4684 23.5795 19.2565 22.9329 18.8256Z" fill="#1C1C1C"/>
</svg>
