<svg width="32" height="32" viewBox="0 0 32 32" fill="none" xmlns="http://www.w3.org/2000/svg">
<g clip-path="url(#clip0_187_1219)">
<rect width="32" height="32" rx="16" fill="white"/>
<path d="M18.3109 14.5433L18.2979 14.558C18.3001 14.5597 18.3044 14.5639 18.3072 14.5659L18.3109 14.5433ZM30.34 31.9999C29.9107 26.5447 29.2972 21.3608 28.3633 20.2121C27.0811 18.6325 20.1356 16.677 20.1356 16.677C20.1356 16.677 18.3315 21.3919 18.2314 21.7262C18.1725 21.8945 17.1721 21.0042 17.1167 21.1746C16.4731 23.6567 15.0344 27.8826 14.5765 30.3452L14.5649 21.4157L15.5418 20.1403L14.3696 19.083L18.415 15.1987C18.4094 15.1947 18.2834 14.5469 18.2798 14.5452C18.1881 13.0513 18.5353 11.7787 18.6737 11.3285C19.2043 11.4912 19.7906 9.65003 19.9992 9.02745C20.2069 8.40487 19.7909 7.93821 19.7909 7.93821C19.8175 7.83294 19.7901 7.81511 20.1025 7.31478C20.3626 6.90048 19.948 3.89086 19.6356 2.95727C19.3246 2.02368 18.5463 1.45232 17.1965 0.933874C15.8486 0.41515 14.0323 0 13.1502 0C12.2687 0 11.958 0.466654 11.6982 0.727007C11.6982 0.727007 11.0753 0.829733 10.6087 0.829733C10.1415 0.829733 9.44615 1.5208 8.99308 2.17564C8.27202 3.21621 8.27231 5.50222 8.3374 6.17376C8.49531 7.80634 8.74123 8.09471 8.87678 8.11933C8.76924 8.15499 8.59831 8.22432 8.48851 8.3245C8.10732 8.67286 8.95431 10.8205 9.11024 11.0794C9.26532 11.3392 9.41531 11.3624 9.41531 11.3624C9.41531 11.3624 9.65811 12.0413 9.77839 12.4004C9.97591 12.9862 10.5546 13.3646 10.5561 13.3855C10.5787 13.619 11.0657 14.7629 11.2126 16.0009C11.1441 16.053 11.0586 16.1229 10.9647 16.2007L10.9726 16.2585L13.313 19.1741L12.2673 20.1739L12.8876 21.4151L11.6809 30.2066L10.5778 21.3116L9.81914 21.9322L9.46314 17.3811L9.14562 17.6129C7.69783 18.3662 2.98799 20.7357 2.58813 22.1334C2.35947 22.9345 1.93215 27.44 1.65991 31.9991H30.34V31.9999Z" fill="#1C1C1C"/>
<path d="M18.3462 15.0605C17.8292 14.7158 11.7729 15.5201 11.7729 15.5201L11.2728 15.5546L8.56628 17.9334L8.63533 18.2439L8.98002 18.3472L9.19849 17.7956L11.1061 16.1177L12.9445 17.7956L15.9113 17.6119L18.323 15.3822L20.0699 16.8074L20.1673 17.3819L20.9429 17.175C20.9435 17.1747 18.8635 15.4052 18.3462 15.0605Z" fill="#1C1C1C"/>
</g>
<defs>
<clipPath id="clip0_187_1219">
<rect width="32" height="32" rx="16" fill="white"/>
</clipPath>
</defs>
</svg>
